<?xml version="1.0" standalone="no"?>
<!DOCTYPE svg PUBLIC "-//W3C//DTD SVG 20010904//EN">
<svg version="1.0" xmlns="http://www.w3.org/2000/svg"
 width="1008.000000pt" height="1008.000000pt" viewBox="0 0 1008.000000 1008.000000"
 preserveAspectRatio="xMidYMid meet">
<metadata>
Created by potrace 1.14, written by Peter Selinger 2001-2017
</metadata>
<g transform="translate(0.000000,1008.000000) scale(0.100000,-0.100000)"
fill="#000000" stroke="none">
<path d="M3155 9580 c-1743 -6 -1750 -6 -1848 -27 -254 -56 -497 -169 -682
-318 -302 -241 -511 -581 -592 -961 -24 -115 -27 -150 -27 -319 0 -168 3 -205
27 -318 29 -136 81 -287 141 -405 20 -40 99 -179 175 -310 76 -130 325 -559
553 -952 229 -393 632 -1086 895 -1540 264 -454 733 -1261 1043 -1795 786
-1354 816 -1405 889 -1503 86 -114 227 -252 343 -335 113 -81 319 -185 448
-226 707 -225 1461 34 1868 641 27 40 205 343 397 673 191 330 556 958 810
1395 254 437 674 1160 932 1605 259 446 663 1141 898 1545 235 404 445 770
467 814 197 391 220 868 63 1276 -205 534 -651 917 -1201 1031 -101 21 -139
23 -514 26 -875 6 -3422 8 -5085 3z m2069 -920 c145 -37 292 -134 379 -249 25
-34 177 -287 338 -564 160 -276 331 -569 379 -652 798 -1370 1244 -2143 1244
-2155 0 -8 -166 -301 -369 -650 -448 -771 -1071 -1845 -1358 -2340 -185 -319
-221 -374 -282 -436 -38 -39 -96 -88 -127 -108 -267 -170 -621 -149 -864 52
-92 76 -131 130 -298 419 -82 142 -204 353 -272 468 -456 784 -1473 2535
-1493 2573 -11 20 9 57 202 390 117 202 379 653 582 1002 203 349 502 865 665
1145 163 281 332 572 376 648 99 174 163 258 239 320 71 58 197 121 280 141
92 22 285 20 379 -4z"/>
</g>
</svg>
