<svg height="32" fill="currentColor" xmlns="http://www.w3.org/2000/svg">
<g clip-path="url(#clip0_2226_10621)">
<path d="M42.3443 11.7528H49.9186V30H56.2879V11.7528H63.8622V5.89996H42.3443V11.7528ZM65.7396 30H84.3311V24.1471H72.1089V20.5321H81.9211V15.3678H72.1089V11.7528H84.3311V5.89996H65.7396V30ZM87.2414 30H93.6107V17.95L93.0942 14.8514H93.4385L101.874 30H109.62V5.89996H103.251V17.95L103.767 21.0486H103.423L94.9878 5.89996H87.2414V30ZM113.417 30H132.008V24.1471H119.786V20.5321H129.598V15.3678H119.786V11.7528H132.008V5.89996H113.417V30ZM133.025 11.7528H140.599V30H146.968V11.7528H154.543V5.89996H133.025V11.7528Z" fill="currentColor"/>
<path d="M31.3523 7.61607C30.4093 5.99107 28.7207 5.01785 26.8346 5.01785H16.434C16.2993 5.00892 16.1645 5 16.0298 5C15.8951 5 15.7604 5.00892 15.6256 5.01785H5.22502C3.33889 5.01785 1.65036 5.99107 0.707297 7.61607C-0.235766 9.24107 -0.235766 11.1786 0.707297 12.8036L11.5121 31.4018C12.4552 33.0268 14.1437 34 16.0298 34C17.9159 34 19.6045 33.0268 20.5475 31.4018L31.3523 12.8036C32.2954 11.1875 32.2954 9.24107 31.3523 7.61607ZM18.0507 29.9732C17.6285 30.6964 16.8741 31.1339 16.0298 31.1339C15.1856 31.1339 14.4311 30.6964 14.009 29.9732L7.92846 19.5089L14.009 9.03571C14.3862 8.38392 15.0239 7.97321 15.7604 7.89285H16.2993C17.0358 7.97321 17.6734 8.39285 18.0507 9.03571L24.1312 19.5L18.0507 29.9732Z" fill="currentColor"/>
</g>
<defs>
<clipPath id="clip0_2226_10621">
<rect width="155" height="38" fill="currentColor"/>
</clipPath>
</defs>
</svg>
